<svg width="28" height="12" viewBox="0 0 28 12" fill="none" xmlns="http://www.w3.org/2000/svg">
<path d="M3.11475 8.78694L2.62295 10.9837C2.62295 11.0492 2.55738 11.082 2.4918 11.082H0.131148C0.0983607 11.082 0.0327869 11.0492 0.0327869 11.0164C0 10.9837 0 10.9509 0 10.9181L3.11475 1.47546C3.11475 1.47546 3.18033 1.31153 3.37705 1.24595C4.06557 1.11481 5.14754 0.950872 5.90164 0.819724C6.06557 0.786937 6.13115 0.950872 6.13115 0.950872L9.18033 10.9837C9.18033 11.0164 9.18033 11.0492 9.14754 11.082C9.11475 11.1148 9.08197 11.1148 9.04918 11.1148H7.67213C7.31148 11.1148 6.59016 11.1476 6.32787 11.1476C6.26229 11.1476 6.19672 11.1148 6.19672 11.0492L5.70492 8.81972L3.11475 8.78694ZM5.31148 6.85251C5.11475 6.06563 4.81967 4.65579 4.52459 3.44268C4.32787 4.29513 3.86885 6.03284 3.63934 6.85251H5.31148ZM12.2951 4.52464C13.9672 3.3771 15.3771 3.6394 16.0656 4.32792C16.8852 5.18038 16.4262 6.29513 16.6885 10.9837C16.6885 11.0164 16.6885 11.0492 16.6557 11.082C16.623 11.1148 16.5902 11.1148 16.5574 11.1148C16.2951 11.1148 15.8033 11.082 15.5738 11.082C15.1803 11.082 14.3607 11.1148 14.0328 11.1148C14 11.1148 13.9672 11.1148 13.9344 11.082C13.9016 11.0492 13.9016 11.0164 13.9016 10.9837C13.9344 6.39349 13.9672 5.77054 13.1475 5.77054C12.8525 5.77054 12.623 5.90169 12.3607 6.00005C12.3607 8.36071 12.3934 9.04923 12.4918 10.9509C12.4918 10.9837 12.4918 11.0164 12.459 11.0164C12.4262 11.0492 12.3934 11.0492 12.3934 11.0492L9.77049 11.082C9.7377 11.082 9.70492 11.082 9.70492 11.0492C9.67213 11.0164 9.67213 10.9837 9.67213 10.9837C9.73771 4.1312 9.67213 2.72136 9.47541 1.27874C9.37705 1.21317 9.5082 1.21317 9.5082 1.21317C10.6885 1.04923 10.7869 1.01645 12.1311 0.75415C12.1311 0.75415 12.2623 0.75415 12.2623 0.918085C12.2951 1.93448 12.2951 4.52464 12.2951 4.52464ZM21.2787 10.3935C20.7869 10.7542 19.8361 11.246 19.0492 11.246C17.8361 11.246 17.082 10.3607 17.082 9.04923C17.082 7.01645 19.4754 6.42628 21.1803 6.19677C21.2131 5.8689 21.2131 5.50825 20.3607 5.50825C19.5082 5.50825 18.7869 5.77054 18.0328 6.06563C18 6.09841 17.9344 6.06563 17.9016 6.06563C17.8689 6.03284 17.8361 6.00005 17.8361 5.93448L17.9016 4.36071C17.9016 4.29513 17.9344 4.26235 18 4.22956C19.541 3.77054 22.1639 3.40989 23.2459 4.42628C23.9344 5.04923 23.9016 5.83612 23.8689 7.14759C23.8361 9.04923 23.8689 9.57382 23.9672 10.9837C23.9672 11.0164 23.9672 11.0492 23.9344 11.082C23.9016 11.1148 23.8689 11.1148 23.8361 11.1148L21.4098 11.1476C21.3771 11.1476 21.3443 11.1476 21.3115 11.1148C21.2787 11.082 21.2787 11.0492 21.2787 11.0164V10.3935ZM21.2131 7.67218C20.5902 7.73776 19.6393 7.80333 19.6393 8.623C19.6393 9.34431 20.4262 9.57382 21.2131 9.08202V7.67218ZM25.6066 7.70497C25.541 7.70497 25.4754 7.6394 25.4754 7.57382C25.3115 4.00005 25.2787 3.60661 25.082 1.3771C25.082 1.31153 25.1148 1.24595 25.2131 1.21317L27.8361 0.786937C27.8689 0.786937 27.9344 0.786937 27.9672 0.819724C28 0.852511 28 0.885298 28 0.950872C27.8361 2.55743 27.6721 5.60661 27.6393 7.54104C27.6393 7.60661 27.5738 7.67218 27.5082 7.67218L25.6066 7.70497ZM25.1487 10.7489C25.1475 10.7379 25.1475 10.7269 25.1475 10.716C25.1475 10.2712 25.1588 9.81523 25.1616 9.42012C25.1604 9.25435 25.1563 9.10615 25.1475 8.98366C25.1475 8.9611 25.1475 8.93858 25.1582 8.91602C25.1562 8.84083 25.1527 8.76569 25.1475 8.69064C25.1475 8.65746 25.1475 8.62425 25.1808 8.59104C25.2139 8.55786 25.2471 8.55786 25.2804 8.55786C25.9444 8.62425 27.1065 8.59104 27.6377 8.52464C27.6709 8.52464 27.7041 8.52464 27.7373 8.55786C27.7705 8.59104 27.7705 8.62425 27.7705 8.65746C27.7705 8.7454 27.7701 8.83245 27.7693 8.91851C27.7705 8.9293 27.7705 8.94008 27.7705 8.95087V10.9837C27.7705 11.0164 27.7705 11.0492 27.7377 11.082C27.7049 11.1148 27.6721 11.1148 27.6393 11.1148C26.6885 11.082 26.0984 11.082 25.2787 11.1476C25.2459 11.1476 25.2131 11.1476 25.1803 11.1148C25.1475 11.082 25.1475 11.0492 25.1475 11.0164C25.1475 10.9279 25.148 10.8385 25.1487 10.7489Z" fill="#0173CF"/>
</svg>
