<svg xmlns="http://www.w3.org/2000/svg" xmlns:xlink="http://www.w3.org/1999/xlink" viewBox="0,0,255.99332,255.99332" width="50px" height="50px"><g fill-opacity="0.81961" fill="#aff547" fill-rule="nonzero" stroke="none" stroke-width="1" stroke-linecap="butt" stroke-linejoin="miter" stroke-miterlimit="10" stroke-dasharray="" stroke-dashoffset="0" font-family="none" font-weight="none" font-size="none" text-anchor="none" style="mix-blend-mode: normal"><g transform="scale(5.12,5.12)"><path d="M25,2c-12.69071,0 -23,10.3093 -23,23c0,12.6907 10.30929,23 23,23c12.69071,0 23,-10.3093 23,-23c0,-12.6907 -10.30929,-23 -23,-23zM25,4c11.60983,0 21,9.39017 21,21c0,11.60983 -9.39017,21 -21,21c-11.60983,0 -21,-9.39017 -21,-21c0,-11.60982 9.39017,-21 21,-21zM25,6c-10.48157,0 -19,8.51844 -19,19c0,10.48156 8.51843,19 19,19c10.48157,0 19,-8.51844 19,-19c0,-10.48156 -8.51843,-19 -19,-19zM25,8c9.40069,0 17,7.59931 17,17c0,9.40069 -7.59931,17 -17,17c-9.40069,0 -17,-7.59931 -17,-17c0,-9.40069 7.59931,-17 17,-17zM24.75781,10.99805c-2.50451,0 -5.07205,0.64761 -7.0957,1.9707c-2.02365,1.3231 -3.50977,3.42782 -3.50977,6.07422c0,3.1457 1.77739,5.23652 4.00391,6.42969c2.22652,1.19317 4.90745,1.6963 7.20898,2.19141c2.15907,0.46429 3.44622,0.95883 4.06836,1.41211c0.62214,0.45328 0.71866,0.74136 0.72461,1.49805c0.0048,0.59727 -0.31881,1.16856 -1.14453,1.6875c-0.82572,0.51894 -2.12891,0.89648 -3.75195,0.89648c-1.93006,0 -3.25424,-0.41277 -4.07617,-1.14062c-0.82193,-0.72786 -1.29297,-1.84753 -1.29297,-3.71484c-0.00015,-0.29554 -0.13102,-0.57588 -0.35747,-0.76579c-0.22645,-0.18991 -0.52531,-0.26993 -0.81636,-0.21859l-4.25195,0.74609c-0.53705,0.09458 -0.89934,0.60196 -0.81445,1.14063c0.49202,3.10627 1.74261,5.59982 3.74023,7.2832c1.99763,1.68338 4.68308,2.51172 7.86914,2.51172c6.26552,0 10.73828,-4.11554 10.73828,-8.43359c0,-2.92817 -1.38929,-5.02888 -3.25781,-6.32227c-1.86852,-1.29339 -4.16304,-1.89548 -6.23828,-2.30273c-2.80902,-0.55102 -4.58675,-1.06015 -5.51172,-1.55078c-0.92497,-0.49063 -0.99805,-0.68846 -0.99805,-1.34766c0,-0.91704 0.36802,-1.28024 1.23633,-1.6582c0.86831,-0.37797 2.20506,-0.54297 3.52539,-0.54297c1.55248,0 2.61207,0.34879 3.27148,0.93945c0.65941,0.59067 1.05273,1.48974 1.05273,3.00781c-0.00005,0.28738 0.12353,0.5609 0.33923,0.7508c0.2157,0.1899 0.50266,0.27784 0.78772,0.24139l4.20313,-0.53711c0.2663,-0.0339 0.50779,-0.17344 0.67015,-0.38723c0.16236,-0.21379 0.23196,-0.48387 0.19313,-0.74949c-0.41151,-2.81313 -1.56735,-5.12607 -3.39258,-6.70898c-1.82523,-1.58291 -4.27811,-2.40039 -7.12305,-2.40039zM24.75781,12.99805c2.46907,0 4.39498,0.68277 5.8125,1.91211c1.19853,1.03942 1.97129,2.59538 2.42578,4.49805l-2.10156,0.26953c-0.19254,-1.36787 -0.62885,-2.5784 -1.53125,-3.38672c-1.15109,-1.03108 -2.7539,-1.44922 -4.60742,-1.44922c-1.46467,0 -3.00778,0.13595 -4.32422,0.70898c-1.31644,0.57303 -2.4375,1.81123 -2.4375,3.49219c0,1.2358 0.74627,2.41811 2.06055,3.11523c1.31428,0.69712 3.19448,1.18116 6.06445,1.74414c1.97076,0.38675 4.0204,0.97297 5.48438,1.98633c1.46398,1.01336 2.39648,2.3369 2.39648,4.67773c0,2.86594 -3.3518,6.43359 -8.73828,6.43359c-2.84494,0 -5.00671,-0.71515 -6.58008,-2.04102c-1.36461,-1.14994 -2.24417,-2.90338 -2.76172,-5.11914l2.16016,-0.38086c0.20073,1.66268 0.70956,3.10761 1.78125,4.05664c1.32731,1.17539 3.18745,1.64258 5.40039,1.64258c1.92396,0 3.57638,-0.42381 4.81641,-1.20312c1.24003,-0.77931 2.09128,-2.00275 2.08008,-3.39648c-0.0091,-1.15232 -0.48801,-2.32814 -1.54687,-3.09961c-1.05886,-0.77147 -2.55629,-1.26229 -4.82422,-1.75c-2.32847,-0.5009 -4.85806,-1.02067 -6.68555,-2c-1.82748,-0.97933 -2.94922,-2.20971 -2.94922,-4.66602c0,-1.9246 0.98892,-3.34474 2.60352,-4.40039c1.6146,-1.05565 3.85147,-1.64453 6.00195,-1.64453z"></path></g></g></svg>