<svg width="211" height="32" viewBox="0 0 211 32" fill="none" xmlns="http://www.w3.org/2000/svg">
<g clip-path="url(#clip0_3197_8632)">
<path fill-rule="evenodd" clip-rule="evenodd" d="M0.813477 32.0009V0H32.8135V32.0009H0.813477ZM15.8478 20.8545H17.5164V11.1428H14.7741L12.2046 18.1294C11.7906 17.0465 11.3979 15.9672 11.0071 14.8932C10.5466 13.6277 10.0887 12.3694 9.60186 11.1212H6.8821L6.8929 20.8248H8.54888V13.3549H8.59748C9.51967 15.8545 10.4388 18.3472 11.355 20.8329H13.0443C13.9599 18.3454 14.8755 15.8602 15.7911 13.3774C15.8289 14.6275 15.8478 20.8545 15.8478 20.8545ZM25.7738 18.5965C24.3923 19.6711 22.5365 19.3534 21.5375 17.8846C20.8067 16.8109 20.7221 15.6256 21.344 14.452C21.9218 13.3612 22.8209 12.7555 24.0881 12.7798C24.9953 12.7978 25.717 13.1974 26.2903 13.8868C26.3313 13.9365 26.379 13.9816 26.4321 14.0318C26.4608 14.0589 26.491 14.0875 26.5225 14.119C26.9824 13.7806 27.4252 13.4557 27.9427 13.0768C27.8623 12.989 27.7871 12.9053 27.7149 12.825C27.5584 12.651 27.4162 12.4927 27.2659 12.3424C26.1175 11.1941 24.7424 10.7468 23.1377 11.0411C22.0483 11.2255 21.0676 11.8116 20.3891 12.6835C19.4162 13.9264 19.022 15.3466 19.3208 16.9234C19.6457 18.6325 20.552 19.9023 22.154 20.6439C22.8904 20.987 23.7083 21.1167 24.5147 21.0183C25.844 20.8617 26.8888 20.1804 27.7276 19.1635C27.7952 19.0638 27.8534 18.958 27.9013 18.8476C27.7529 18.7456 27.61 18.64 27.4682 18.5351C27.1481 18.2986 26.833 18.0657 26.4694 17.8855C26.3706 18.0236 26.2645 18.1563 26.1517 18.2833C26.0328 18.3959 25.9065 18.5005 25.7738 18.5965Z" fill="white"/>
<path fill-rule="evenodd" clip-rule="evenodd" d="M83.049 14.8874C83.0589 16.4498 82.8105 17.8367 82.176 19.1335C81.096 21.3475 79.3113 22.6543 76.884 23.0458C75.2901 23.3032 73.7251 23.1592 72.2302 22.4932C70.9608 21.935 69.8963 20.9963 69.1837 19.8067C68.4961 18.6809 68.0916 17.4052 68.0047 16.0889C67.9525 15.5695 67.932 15.0475 67.9435 14.5256C68.0335 12.7022 68.4988 10.9976 69.6436 9.52436C70.565 8.32905 71.8603 7.47699 73.3228 7.10429C74.2053 6.86551 75.1212 6.77428 76.0335 6.8343C77.8245 6.9531 79.4238 7.55429 80.7261 8.81427C81.5313 9.60157 82.1397 10.5676 82.5018 11.6339C82.8747 12.6777 83.0599 13.7791 83.049 14.8874ZM80.0691 14.9909C80.0367 14.0351 79.9458 13.0892 79.6191 12.1775C79.3041 11.2856 78.837 10.4991 78.0477 9.94376C77.0424 9.23547 75.9228 9.04377 74.7178 9.22917C73.3102 9.44606 72.3085 10.1994 71.6641 11.4593C71.0836 12.5942 70.9441 13.8218 70.9279 15.0593C70.918 15.7455 70.9939 16.4303 71.1538 17.0978C71.3626 17.9492 71.6722 18.7537 72.2491 19.4251C72.9088 20.1919 73.7575 20.6095 74.7636 20.7589C76.875 21.0748 78.765 20.1109 79.5489 18.0149C79.917 17.0375 80.034 16.0241 80.0691 14.9909Z" fill="white"/>
<path d="M61.1565 7.10733H65.1408L65.1741 7.14063C65.1768 7.14391 65.1801 7.14718 65.1834 7.15046C65.1918 7.15888 65.2002 7.16731 65.2002 7.17573C65.2056 12.2757 65.2098 17.3756 65.2128 22.4756V22.8203C64.8573 22.8986 63.0888 22.9193 62.3661 22.8545C62.3661 22.6007 62.364 22.3448 62.3618 22.088C62.3603 21.9031 62.3588 21.7177 62.358 21.5324C62.3568 21.2372 62.3572 20.9356 62.3576 20.634C62.3578 20.4832 62.358 20.3324 62.358 20.1824V10.7253L62.277 10.7082L57.8671 22.8743C57.6665 22.8743 57.4678 22.877 57.2699 22.8798L57.2689 22.8798C57.1119 22.882 56.9554 22.8843 56.7988 22.885C56.5669 22.8862 56.3438 22.8859 56.1077 22.8855H56.1042L55.7188 22.885L51.2458 10.6353L51.1873 10.6425V22.8176C50.8192 22.9004 49.049 22.9139 48.5243 22.8473C48.4523 22.4801 48.419 8.20892 48.4883 7.16313C48.7952 7.07313 51.7498 7.04163 52.6417 7.12353C52.914 7.88381 53.1871 8.64697 53.4609 9.41183C53.8874 10.6036 54.3154 11.7995 54.7441 12.9951C55.2808 14.492 55.8196 15.9905 56.3745 17.5337L56.8978 18.989L57.0298 18.6196C57.7128 16.7085 58.3683 14.8743 59.0262 13.0401C59.6574 11.2805 60.2966 9.50113 60.9438 7.69941L60.9454 7.69493L61.1565 7.10733Z" fill="white"/>
<path d="M99.4728 22.8747H96.7125L88.6234 10.7249L88.5532 10.7501V22.818C88.1932 22.8999 86.5958 22.9224 85.7993 22.8621C85.721 22.5435 85.6913 7.8953 85.7696 7.11861H89.2057L89.8371 8.06614C90.8484 9.58368 91.8692 11.1156 92.8894 12.6481C93.6638 13.8115 94.4308 14.9663 95.2124 16.1432L95.2245 16.1614L95.2264 16.1642C95.6846 16.8542 96.1479 17.5518 96.6207 18.2632V7.16361C96.9807 7.07361 98.6007 7.05111 99.4233 7.11321C99.4342 7.12334 99.4444 7.13416 99.4539 7.14561L99.4602 7.15334C99.4681 7.16278 99.4764 7.17264 99.4764 7.18251C99.4806 12.3262 99.4842 17.47 99.4872 22.6137C99.4872 22.6593 99.484 22.7046 99.4801 22.7605C99.4778 22.794 99.4752 22.8313 99.4728 22.8747Z" fill="white"/>
<path fill-rule="evenodd" clip-rule="evenodd" d="M178.595 22.8689H181.835C181.29 21.9891 180.747 21.1226 180.209 20.2627L180.206 20.2576L180.204 20.2546C179.434 19.0255 178.673 17.8099 177.926 16.5888C178.057 16.5215 178.185 16.4586 178.311 16.3973L178.312 16.3967L178.313 16.3961L178.314 16.3956C178.583 16.2639 178.838 16.1389 179.079 15.9921C180.005 15.4269 180.671 14.643 181.007 13.6008C181.229 12.9114 181.263 12.2049 181.207 11.4849C181.072 9.74345 180.257 8.46996 178.658 7.71757C177.69 7.26307 176.655 7.11188 175.604 7.10108C174.05 7.08596 172.496 7.08936 170.942 7.09276H170.941C170.275 7.09422 169.61 7.09567 168.945 7.09567C168.867 7.09567 168.789 7.10441 168.712 7.11312C168.675 7.11721 168.639 7.12131 168.603 7.12448V22.8644H171.47V19.3076C171.47 19.1766 171.469 19.0451 171.467 18.9139V18.9074C171.465 18.648 171.463 18.3897 171.47 18.1376C171.473 18.0146 171.469 17.8909 171.465 17.7673C171.457 17.5077 171.449 17.2479 171.51 16.9938H174.995L178.595 22.8689ZM171.493 14.6718V9.42215L172.192 9.42305C172.438 9.42368 172.684 9.42412 172.931 9.42455C173.732 9.42597 174.534 9.42739 175.335 9.43565C175.844 9.43972 176.348 9.53703 176.822 9.72274C177.586 10.0233 178.086 10.5543 178.247 11.3733C178.367 11.9835 178.355 12.5874 178.118 13.1733C177.951 13.5939 177.646 13.9452 177.253 14.1696C176.798 14.4305 176.292 14.5881 175.769 14.6313C174.884 14.7145 173.997 14.705 173.111 14.6954C172.637 14.6903 172.163 14.6852 171.689 14.6943C171.623 14.6904 171.558 14.6829 171.493 14.6718Z" fill="white"/>
<path fill-rule="evenodd" clip-rule="evenodd" d="M209.932 19.4565C210.688 18.0759 210.973 16.5792 210.973 14.9052C211.004 13.836 210.746 12.513 210.426 11.6356C209.761 9.81578 208.606 8.4253 206.852 7.56581C206.068 7.18241 205.231 6.98441 204.358 6.88362C203.137 6.73502 201.899 6.86613 200.736 7.26701C198.548 8.0257 197.141 9.56918 196.388 11.7229C195.914 13.0947 195.75 14.5549 195.91 15.9978C195.982 16.8596 196.172 17.7075 196.475 18.5178C197.318 20.6831 198.822 22.1654 201.072 22.8323C202.384 23.2151 203.771 23.2679 205.108 22.9862C207.271 22.553 208.879 21.3764 209.932 19.4565ZM207.55 12.1953C207.867 13.1079 207.958 14.0538 207.99 14.97C207.959 16.059 207.844 17.0931 207.45 18.0768C207.091 18.9732 206.545 19.7247 205.7 20.2259C204.829 20.7399 203.806 20.9344 202.807 20.7758C202.394 20.7194 201.988 20.613 201.6 20.459C200.456 19.9983 199.769 19.1019 199.35 17.9805C199.079 17.2217 198.922 16.4266 198.886 15.6216C198.828 14.7002 198.896 13.7752 199.088 12.8721C199.251 12.0481 199.609 11.2748 200.131 10.6168C200.68 9.93395 201.451 9.46495 202.31 9.29109C203.628 9.00399 204.87 9.16509 205.989 9.95528C206.775 10.5106 207.24 11.3017 207.55 12.1953Z" fill="white"/>
<path d="M128.1 13.8135V16.1445H120.641C120.627 17.0707 120.628 17.98 120.629 18.8944V18.8956C120.63 19.4451 120.631 19.9965 120.628 20.5544H129.165V22.8242C128.838 22.9061 118.195 22.9142 117.759 22.8323V7.15C118.103 7.078 128.289 7.0519 129.039 7.1185C129.111 7.44609 129.124 8.86178 129.053 9.42337H120.652V13.8054C120.991 13.8153 121.327 13.8142 121.663 13.8131H121.664C121.818 13.8126 121.972 13.812 122.126 13.8126C122.453 13.8138 122.784 13.8134 123.115 13.813C123.28 13.8128 123.446 13.8126 123.611 13.8126L128.1 13.8135Z" fill="white"/>
<path fill-rule="evenodd" clip-rule="evenodd" d="M160.409 7.10742H157.079C155.687 10.5604 154.296 14.0137 152.9 17.4785L152.775 17.7889C152.095 19.4769 151.414 21.1677 150.731 22.8626H153.634L155.124 19.0503H162.257L163.721 22.8617H166.759C164.639 17.6028 162.523 12.3514 160.409 7.10742ZM156.137 16.6734C156.177 16.3449 158.477 10.405 158.747 9.95499L161.316 16.6428C160.956 16.7193 156.76 16.7391 156.137 16.6734Z" fill="white"/>
<path d="M149.92 12.038H147.13C147.118 12.0027 147.104 11.9668 147.091 11.9304C147.061 11.8479 147.029 11.7629 147.005 11.678C146.61 10.292 145.723 9.46222 144.28 9.23452C143.088 9.04642 141.987 9.23992 140.998 9.95451C140.278 10.4711 139.842 11.1929 139.533 12.002C139.1 13.1414 139.036 14.3276 139.076 15.5299C139.095 16.4567 139.286 17.372 139.637 18.2299C140.087 19.3099 140.813 20.1388 141.935 20.551C142.998 20.9407 144.081 20.9515 145.136 20.5303C146.126 20.137 146.7 19.3603 146.996 18.3649C147.016 18.2945 147.036 18.2242 147.057 18.152L147.08 18.07L147.108 17.9734H149.961C149.845 18.7483 149.587 19.4952 149.2 20.1766C148.307 21.7291 146.957 22.648 145.192 22.9863C143.738 23.2662 142.312 23.2122 140.902 22.729C139.208 22.1467 137.958 21.0442 137.107 19.489C136.489 18.3586 136.197 17.1382 136.088 15.8557C135.972 14.5467 136.107 13.2276 136.483 11.9687C136.832 10.7554 137.494 9.6551 138.402 8.77823C139.276 7.93037 140.365 7.33699 141.552 7.06195C142.981 6.70411 144.481 6.74112 145.891 7.16905C147.922 7.78644 149.157 9.18682 149.774 11.1731C149.825 11.3385 149.863 11.5082 149.901 11.6783C149.918 11.7562 149.936 11.8342 149.954 11.912C149.955 11.925 149.95 11.9402 149.942 11.9635C149.936 11.9821 149.928 12.0062 149.92 12.038Z" fill="white"/>
<path d="M107.178 22.8742H110.045V11.0789C110.046 10.9103 110.045 10.7415 110.044 10.5722C110.042 10.1921 110.04 9.80851 110.058 9.41572H113.534C113.658 9.41572 113.784 9.41692 113.91 9.41812C114.161 9.42052 114.413 9.42292 114.658 9.41572C114.776 9.41225 114.894 9.41613 115.012 9.42C115.262 9.42816 115.51 9.43629 115.751 9.37522V7.12525C115.702 7.11015 115.652 7.09961 115.601 7.09375C110.924 7.09555 106.247 7.09825 101.571 7.10185C101.561 7.10185 101.55 7.10973 101.541 7.11703L101.533 7.12255C101.526 7.12772 101.519 7.13435 101.511 7.14151L101.507 7.14524L101.497 7.15405V9.42382C102.124 9.42382 102.75 9.42322 103.375 9.42262L103.377 9.42262C104.628 9.42142 105.878 9.42022 107.143 9.42382V20.1895C107.143 20.3395 107.142 20.4905 107.141 20.6415C107.139 20.9432 107.137 21.2458 107.143 21.5395C107.146 21.6798 107.142 21.8204 107.139 21.9614C107.132 22.2634 107.126 22.5675 107.178 22.8742Z" fill="white"/>
<path d="M195.377 20.601V22.8618H184.319C184.308 22.8511 184.297 22.8397 184.287 22.8276C184.286 22.8254 184.284 22.8232 184.282 22.821C184.274 22.8112 184.266 22.801 184.266 22.7907C184.261 17.6494 184.258 12.5074 184.255 7.36488C184.255 7.31721 184.258 7.26915 184.262 7.22253C184.263 7.20377 184.265 7.18524 184.266 7.16706C184.266 7.16217 184.266 7.15731 184.267 7.15248C184.627 7.07508 186.702 7.06248 187.22 7.14078V20.4606C187.228 20.4693 187.235 20.4766 187.24 20.4826C187.255 20.4985 187.262 20.5066 187.27 20.5137C187.28 20.5237 187.292 20.5317 187.305 20.5371C187.334 20.5444 187.365 20.5489 187.395 20.5506H195.261C195.267 20.5507 195.274 20.5512 195.28 20.552C195.288 20.553 195.297 20.5547 195.305 20.5569C195.33 20.5702 195.354 20.585 195.377 20.601Z" fill="white"/>
</g>
<defs>
<clipPath id="clip0_3197_8632">
<rect width="210.163" height="32" fill="white" transform="translate(0.813477)"/>
</clipPath>
</defs>
</svg>
