<svg width="113" height="46" viewBox="0 0 113 46" fill="none" xmlns="http://www.w3.org/2000/svg">
<path d="M44.049 12.8664C44.0561 12.8817 44.0631 12.8969 44.0706 12.9117C46.8586 18.7635 46.9742 25.294 44.8194 31.0173C44.7001 31.3341 44.2409 31.2101 44.2659 30.8724C44.6927 25.1144 43.3345 18.8643 40.0153 13.1153C36.6976 7.36776 31.9641 3.06563 26.7636 0.556344C26.4585 0.409179 26.5807 -0.0505699 26.9148 0.00456377C32.9485 1.00015 38.5461 4.3658 42.2199 9.70593C42.2292 9.71948 42.2385 9.73272 42.2478 9.74596C42.2576 9.7598 42.2677 9.77428 42.2774 9.78849C42.3526 9.89909 42.4278 10.0126 42.5016 10.1262C42.5694 10.2309 42.6357 10.3341 42.7021 10.4388L42.7254 10.475C42.768 10.5413 42.8115 10.609 42.8525 10.6762C42.9734 10.8723 43.0929 11.0714 43.2094 11.272C43.3259 11.4725 43.438 11.6745 43.5471 11.878C43.5914 11.9607 43.6356 12.0447 43.6783 12.1272C43.7358 12.2378 43.7919 12.347 43.8479 12.4576C43.9084 12.5785 43.9689 12.7009 44.0278 12.8218C44.0351 12.8364 44.0421 12.8515 44.049 12.8664Z" fill="white"/>
<path d="M6.29667 13.1154C9.6158 7.36779 14.3494 3.06564 19.55 0.556366C19.855 0.409203 19.7328 -0.0505576 19.3987 0.00456132C13.364 1.00005 7.76737 4.36574 4.09355 9.706C4.08427 9.71951 4.075 9.73271 4.06573 9.74591C4.05584 9.76 4.04594 9.77409 4.03604 9.78857C3.95936 9.9006 3.88563 10.0127 3.81189 10.1263C3.74405 10.2295 3.6777 10.3342 3.61134 10.4388C3.58564 10.4797 3.55993 10.5201 3.53423 10.5606C3.50979 10.599 3.48536 10.6375 3.46093 10.6763C3.34 10.8724 3.22056 11.07 3.10406 11.272C2.99964 11.4518 2.89996 11.6339 2.80078 11.8152L2.76637 11.8781L2.76359 11.8833C2.72028 11.9642 2.67699 12.0451 2.63513 12.1273C2.57761 12.2365 2.52157 12.3471 2.46554 12.4577L2.42505 12.5384C2.37775 12.6324 2.33035 12.7267 2.28563 12.8219C2.27831 12.8365 2.27136 12.8515 2.26441 12.8665C2.25735 12.8817 2.2503 12.897 2.24287 12.9118C-0.545152 18.7636 -0.661901 25.2941 1.49262 31.0173C1.61193 31.3342 2.07111 31.2101 2.04607 30.8724C1.61928 25.1145 2.97752 18.8643 6.29667 13.1154Z" fill="white"/>
<path d="M5.65309 37.1172C5.37313 36.9267 5.03603 37.2623 5.25085 37.5241C9.12994 42.2516 14.8433 45.4162 21.305 45.9278C21.3389 45.9307 21.3714 45.9336 21.4052 45.9351C21.5394 45.9455 21.6751 45.9528 21.8108 45.9602C21.9347 45.9676 22.057 45.9735 22.1809 45.9779C22.2738 45.9823 22.3681 45.9853 22.4626 45.9882L22.4681 45.9884C22.6964 45.9942 22.926 46 23.1571 46C23.3901 46 23.6202 45.9956 23.8517 45.9882C23.8988 45.9868 23.9455 45.9849 23.9922 45.9831L24.0553 45.9806L24.1333 45.9779C24.2181 45.9749 24.3028 45.9705 24.387 45.9661L24.5035 45.9602C24.6257 45.9536 24.7467 45.9457 24.8687 45.9378L24.909 45.9351L24.9164 45.9345C24.9476 45.9317 24.9778 45.9291 25.0093 45.9278C31.4713 45.4162 37.1849 42.2525 41.0641 37.5237C41.2788 37.2618 40.9417 36.9262 40.6619 37.1168C35.8888 40.3658 29.7957 42.3149 23.1586 42.3149C16.5218 42.3149 10.4265 40.366 5.65309 37.1172Z" fill="white"/>
<path fill-rule="evenodd" clip-rule="evenodd" d="M62.2519 23.8688C62.2519 22.7781 62.443 21.7608 62.8252 20.8169C63.2287 19.873 63.7701 19.0549 64.4495 18.3628C65.1502 17.6706 65.9677 17.1357 66.9019 16.7582C67.8575 16.3596 68.8872 16.1604 69.9914 16.1604C71.0954 16.1604 72.1147 16.3596 73.049 16.7582C74.0044 17.1357 74.8219 17.6706 75.5014 18.3628C76.202 19.0549 76.7435 19.873 77.1257 20.8169C77.5291 21.7608 77.7309 22.7781 77.7309 23.8688C77.7309 24.9805 77.5291 26.0084 77.1257 26.9523C76.7435 27.8752 76.202 28.6827 75.5014 29.3749C74.8219 30.0672 74.0044 30.6125 73.049 31.011C72.1147 31.3886 71.0954 31.5774 69.9914 31.5774C68.8872 31.5774 67.8575 31.3886 66.9019 31.011C65.9677 30.6125 65.1502 30.0672 64.4495 29.3749C63.7701 28.6827 63.2287 27.8752 62.8252 26.9523C62.443 26.0084 62.2519 24.9805 62.2519 23.8688ZM65.2776 23.8688C65.2776 24.5401 65.3944 25.1798 65.628 25.7881C65.8616 26.3754 66.1801 26.8894 66.5834 27.3298C67.0081 27.7703 67.5071 28.1164 68.0804 28.3681C68.6537 28.6198 69.2907 28.7457 69.9914 28.7457C70.6921 28.7457 71.329 28.6198 71.9023 28.3681C72.4756 28.1164 72.964 27.7703 73.3674 27.3298C73.7921 26.8894 74.1212 26.3754 74.3548 25.7881C74.5883 25.1798 74.7051 24.5401 74.7051 23.8688C74.7051 23.1976 74.5883 22.5684 74.3548 21.9811C74.1212 21.3728 73.7921 20.8484 73.3674 20.4079C72.964 19.9674 72.4756 19.6213 71.9023 19.3696C71.329 19.1179 70.6921 18.9921 69.9914 18.9921C69.2907 18.9921 68.6537 19.1179 68.0804 19.3696C67.5071 19.6213 67.0081 19.9674 66.5834 20.4079C66.1801 20.8484 65.8616 21.3728 65.628 21.9811C65.3944 22.5684 65.2776 23.1976 65.2776 23.8688Z" fill="white"/>
<path d="M87.0377 18.9921C87.5049 18.9921 87.8977 19.034 88.2162 19.1179L88.5666 16.2548C88.3967 16.2128 88.195 16.1918 87.9614 16.1918C87.7491 16.1709 87.558 16.1604 87.3881 16.1604C86.284 16.1604 85.3497 16.3701 84.5854 16.7896C83.821 17.2092 83.2583 17.6706 82.8973 18.174V16.475H79.9671V31.2628H82.9929V21.4776C83.4175 20.7644 84.0015 20.1772 84.7446 19.7157C85.4877 19.2333 86.2522 18.9921 87.0377 18.9921Z" fill="white"/>
<path fill-rule="evenodd" clip-rule="evenodd" d="M93.2404 31.2627H90.3098V8.92376H93.3356V17.765C94.0148 17.2196 94.7479 16.821 95.5331 16.5694C96.3184 16.2966 97.1152 16.1603 97.922 16.1603C98.6228 16.1603 99.2804 16.2442 99.8967 16.4121C100.512 16.5798 101.075 16.8106 101.585 17.1042C102.731 17.7754 103.655 18.6983 104.356 19.873C105.077 21.0476 105.438 22.3796 105.438 23.8688C105.438 25.3581 105.088 26.6901 104.387 27.8647C103.686 29.0183 102.763 29.9308 101.616 30.602C101.107 30.8957 100.523 31.1264 99.8644 31.2942C99.2068 31.4829 98.5374 31.5774 97.8582 31.5774C96.0318 31.5774 94.4928 31.0215 93.2404 29.9098V31.2627ZM93.3356 26.6376C93.845 27.3088 94.4604 27.8332 95.1828 28.2107C95.9257 28.5673 96.6795 28.7457 97.4441 28.7457C98.1664 28.7457 98.824 28.6198 99.4188 28.3681C100.034 28.0954 100.565 27.7388 101.012 27.2983C101.457 26.8578 101.797 26.3439 102.03 25.7566C102.286 25.1693 102.412 24.5401 102.412 23.8688C102.412 23.2186 102.295 22.5998 102.062 22.0125C101.828 21.4252 101.499 20.9113 101.075 20.4708C100.671 20.0093 100.173 19.6527 99.5778 19.4011C98.9839 19.1283 98.3254 18.992 97.6031 18.992C96.6903 18.992 95.862 19.1913 95.119 19.5898C94.3976 19.9884 93.8028 20.4918 93.3356 21.1001V26.6376Z" fill="white"/>
<path d="M108.479 27.8333C108.055 28.2527 107.843 28.7666 107.843 29.3749C107.843 29.9833 108.055 30.5077 108.479 30.9482C108.925 31.3676 109.456 31.5774 110.071 31.5774C110.688 31.5774 111.208 31.3676 111.632 30.9482C112.079 30.5077 112.301 29.9833 112.301 29.3749C112.301 28.7666 112.079 28.2527 111.632 27.8333C111.208 27.3928 110.688 27.1725 110.071 27.1725C109.456 27.1725 108.925 27.3928 108.479 27.8333Z" fill="white"/>
</svg>
