<svg width="142" height="36" viewBox="0 0 142 36" fill="none" xmlns="http://www.w3.org/2000/svg">
<path fill-rule="evenodd" clip-rule="evenodd" d="M31.0681 5.26966C32.7193 6.9253 34.0191 8.85277 34.9282 11.0001C35.8679 13.2223 36.342 15.5761 36.3377 18.0043C36.3377 18.3294 36.3287 18.6545 36.3112 18.9783C36.299 19.2036 36.2827 19.4284 36.2623 19.6514C36.2438 19.8529 36.2221 20.0535 36.1972 20.2528C35.7053 24.1915 33.8831 27.9112 31.0638 30.7303C28.205 33.5889 24.4285 35.4201 20.428 35.8813C19.7342 35.9601 19.0317 36 18.3378 36C15.8304 36 13.402 35.4948 11.1185 34.4935C8.40035 33.3036 5.99392 31.4375 4.15836 29.0926C1.65967 25.8996 0.337891 22.0661 0.337891 17.9998C0.337891 17.6836 0.346623 17.3719 0.359834 17.0647C0.522286 13.9249 1.51032 10.873 3.21421 8.2379C3.90365 7.17116 4.71166 6.17428 5.6118 5.27414C6.50322 4.37802 7.49573 3.57909 8.54959 2.8939C11.4083 1.03629 14.7238 0.034931 18.1402 0.00447834C18.2061 0 18.2719 0 18.3378 0C22.4701 0 26.5057 1.43575 29.7025 4.03543C30.168 4.41743 30.629 4.83033 31.0681 5.26966ZM6.534 10.3812C5.20349 12.4363 4.43501 14.8161 4.3076 17.2667C4.29439 17.5125 4.29002 17.7539 4.29002 17.9998C4.29002 19.8749 4.65892 21.6756 5.35273 23.3572L10.5126 10.0736L23.9675 5.12008C22.2153 4.3516 20.3183 3.95213 18.3466 3.95213H18.2105C15.5361 3.97855 12.9409 4.75554 10.7058 6.20921C9.88022 6.74482 9.10737 7.36865 8.40908 8.06683C7.70207 8.76948 7.07409 9.54647 6.534 10.3812ZM13.5513 13.165L7.98308 27.4894C8.43103 27.9748 8.91021 28.4294 9.41794 28.8476L9.55139 28.956C9.74195 29.1092 9.93631 29.2574 10.1345 29.4003C10.4128 29.6009 10.6985 29.7912 10.9912 29.9708L17.1126 16.7046L30.4096 10.8071C29.8166 9.81472 29.1054 8.89666 28.2753 8.06683C28.2277 8.01891 28.1785 7.97323 28.1284 7.92665L28.1184 7.91725L28.0293 7.83395L13.5513 13.165ZM20.0768 19.7168L14.614 31.5472C16.0236 31.9337 17.4904 32.1047 18.979 32.0344L23.7039 23.3353L32.368 18.7642C32.3813 18.5094 32.39 18.2591 32.39 18.0043C32.39 16.7924 32.2364 15.6066 31.9376 14.4561L20.0768 19.7168ZM24.1564 30.7872C25.6756 30.0935 27.0809 29.132 28.2753 27.9377C29.4434 26.7693 30.3833 25.3993 31.0725 23.9107L26.6066 26.2686L24.1564 30.7872Z" fill="white"/>
<path fill-rule="evenodd" clip-rule="evenodd" d="M57.4373 25.5552C62.5081 25.5552 66.4399 21.1292 66.4399 15.6043C66.4399 10.77 62.5081 6.88096 57.4373 6.88096H47.6995V33.5517H53.5788V25.5552H57.4373ZM57.4373 12.3329C59.2376 12.3329 60.2871 13.7709 60.5606 15.6043C60.8709 17.6841 59.2376 20.1032 57.4373 20.1032H53.5788V12.3329H57.4373Z" fill="white"/>
<path fill-rule="evenodd" clip-rule="evenodd" d="M86.9443 7.38119V25.5547H81.4324V23.8467C80.2196 25.2278 78.4192 26.0639 75.9571 26.0639C71.1434 26.0639 67.1748 21.8838 67.1748 16.4682C67.1748 11.0525 71.1434 6.87245 75.9571 6.87245C78.4192 6.87245 80.2196 7.70856 81.4324 9.08968V7.38119H86.9443ZM81.4324 16.4682C81.4324 13.7422 79.595 12.0337 77.0595 12.0337C74.5241 12.0337 72.6868 13.7422 72.6868 16.4682C72.6868 19.1941 74.5241 20.9026 77.0595 20.9026C79.595 20.9026 81.4324 19.1941 81.4324 16.4682Z" fill="white"/>
<path d="M97.9679 19.049V12.1148H101.753V6.88096H97.9679V2.29291L92.4559 3.9284V6.88096H89.5164V12.1148H92.4559V19.049C92.4559 24.1378 94.5504 26.282 101.753 25.5552V20.612C99.3275 20.7575 97.9679 20.612 97.9679 19.049Z" fill="white"/>
<path d="M103.59 16.4682C103.59 11.0525 107.743 6.87245 113.328 6.87245C116.893 6.87245 120.053 8.72604 121.633 11.525L116.819 14.2872C116.194 13.0149 114.872 12.2518 113.255 12.2518C110.866 12.2518 109.102 13.9603 109.102 16.4682C109.102 18.9761 110.866 20.6845 113.255 20.6845C114.872 20.6845 116.231 19.921 116.819 18.6491L121.633 21.3751C120.053 24.2103 116.929 26.0639 113.328 26.0639C107.743 26.0639 103.59 21.8838 103.59 16.4682Z" fill="white"/>
<path d="M141.476 25.5552V14.3965C141.476 9.48959 138.315 6.87245 134.604 6.87648C132.179 6.87648 130.342 7.74886 129.349 9.09371V2.305L123.837 3.91227V25.5552H129.349V15.6325C129.349 13.0517 130.746 11.8886 132.767 11.8886C134.531 11.8886 135.964 12.9428 135.964 15.1963V25.5552H141.476Z" fill="white"/>
</svg>
