<svg width="136" height="32" viewBox="0 0 136 32" fill="none" xmlns="http://www.w3.org/2000/svg">
<path d="M72.7812 21.082C72.7812 21.6361 73.0659 22.2613 73.6342 22.9564L73.9296 23.3148C74.3889 23.9668 75.1978 24.6408 76.3577 25.3359C76.927 25.706 77.6703 26.0155 78.589 26.2656C79.5077 26.5142 80.4815 26.6405 81.5101 26.6405C83.5223 26.6405 85.4139 26.0637 87.1867 24.9122C88.1055 24.3254 88.8485 23.4941 89.4171 22.4185C89.9863 21.3437 90.2703 20.0993 90.2703 18.6862C90.2703 17.2739 89.9913 16.0842 89.4335 15.1168C88.8757 14.1504 88.1808 13.4708 87.3498 13.0795C86.5181 12.6884 85.6117 12.3577 84.6265 12.0854C83.642 11.814 82.7349 11.6128 81.903 11.4823C81.0713 11.3519 80.3773 11.1027 79.8195 10.7326C79.2617 10.3635 78.9835 9.88015 78.9835 9.28213C78.9835 8.6848 79.2181 8.21767 79.6882 7.88051C80.1583 7.54385 80.7488 7.37516 81.4601 7.37516C82.1705 7.37516 82.7562 7.51695 83.2164 7.79891C83.3681 7.90815 83.5378 8.04909 83.7242 8.22269C83.9095 8.39698 84.0367 8.50548 84.1014 8.54866C84.7798 8.98381 85.3484 9.20059 85.8077 9.20059C86.5953 9.20059 87.3606 8.65784 88.1055 7.57074C88.6297 6.81042 88.8928 6.21309 88.8928 5.77791C88.8928 5.34356 88.5534 4.81062 87.875 4.18069L87.0547 3.56135C86.6394 3.21337 85.8897 2.87194 84.807 2.53455C83.7242 2.19799 82.5264 2.0293 81.2141 2.0293C78.7423 2.0293 76.7901 2.74153 75.3577 4.16438C73.9248 5.58804 73.2077 7.25537 73.2077 9.16792C73.2077 10.559 73.4866 11.7489 74.0444 12.7373C74.6032 13.7266 75.2962 14.4494 76.1282 14.9051C76.9599 15.3612 77.8555 15.7583 78.8186 16.0947C79.7809 16.4321 80.6784 16.6765 81.5101 16.8282C82.3402 16.9806 83.0351 17.225 83.5938 17.5617C84.1507 17.8991 84.4296 18.3171 84.4296 18.8167C84.4296 20.4684 83.4124 21.2939 81.3781 21.2939C80.8972 21.2939 80.3716 21.126 79.8038 20.7887C79.2338 20.4522 78.7966 20.0993 78.4905 19.7292C77.3971 18.643 76.5439 18.0994 75.9313 18.0994C75.3193 18.0994 74.7393 18.3603 74.1929 18.8818C73.2511 19.7945 72.7812 20.5287 72.7812 21.082Z" fill="white"/>
<path fill-rule="evenodd" clip-rule="evenodd" d="M38.395 2.12891C41.632 2.12891 44.4432 3.29178 46.8278 5.61593C49.2116 7.94243 50.4042 10.8272 50.4042 14.2703C50.4042 17.7159 49.2667 20.6486 46.9918 23.0713C44.7162 25.4959 41.9166 26.7067 38.5919 26.7067C35.2662 26.7067 32.4394 25.5114 30.1097 23.1211C27.7802 20.7302 26.6152 17.8838 26.6152 14.58C26.6152 12.7766 26.9435 11.0872 27.5998 9.51126C28.2558 7.93672 29.1304 6.61664 30.2246 5.55073C31.3181 4.48645 32.5756 3.64954 33.998 3.04161C35.4197 2.43287 36.8855 2.12891 38.395 2.12891ZM32.423 14.4179C32.423 16.3517 33.0514 17.9219 34.3098 19.1273C35.5673 20.3341 36.9725 20.9371 38.5263 20.9371C40.0791 20.9371 41.4794 20.3496 42.7261 19.1769C43.9731 18.0026 44.5965 16.4282 44.5965 14.4505C44.5965 12.4726 43.9674 10.8859 42.7097 9.69057C41.4515 8.4959 40.0462 7.89857 38.4934 7.89857C36.9397 7.89857 35.5403 8.5007 34.2933 9.70771C33.0466 10.9129 32.423 12.484 32.423 14.4179Z" fill="white"/>
<path fill-rule="evenodd" clip-rule="evenodd" d="M71.1391 11.0926C71.1391 9.68026 70.8552 8.39856 70.2869 7.24617C69.7174 6.0947 68.9848 5.18117 68.0876 4.50805C66.2723 3.1178 64.4019 2.42188 62.4774 2.42188H55.4556C54.0553 2.42188 53.2022 2.71524 52.8961 3.30198C52.7206 3.62794 52.6172 3.91642 52.5845 4.1658C52.5516 4.41597 52.5352 4.79084 52.5352 5.29038V23.3815C52.5352 24.1426 52.6007 24.7073 52.7321 25.0773C52.9945 25.8809 53.8911 26.2825 55.4227 26.2825C56.8223 26.2825 57.6752 25.9892 57.982 25.4026C58.1567 25.0773 58.2609 24.7888 58.2938 24.5387C58.3267 24.2893 58.3431 23.9144 58.3431 23.4142V19.7308H62.4445C64.3912 19.7308 66.2723 19.0348 68.0876 17.6446C68.9848 16.9714 69.7174 16.0636 70.2869 14.9226C70.8552 13.7819 71.1391 12.5057 71.1391 11.0926ZM65.365 11.0926C65.365 12.0493 65.0465 12.7665 64.4133 13.2439C63.7783 13.7223 63.1337 13.961 62.4774 13.961H58.3431V8.19138H62.4445C63.1223 8.19138 63.7783 8.43602 64.4133 8.92485C65.0465 9.41392 65.365 10.1367 65.365 11.0926Z" fill="white"/>
<path fill-rule="evenodd" clip-rule="evenodd" d="M112.123 5.61593C109.737 3.29178 106.927 2.12891 103.689 2.12891C102.18 2.12891 100.714 2.43287 99.2929 3.04161C97.8705 3.64954 96.6121 4.48645 95.5186 5.55073C94.4251 6.61664 93.5507 7.93672 92.8944 9.51126C92.2375 11.0872 91.9102 12.7766 91.9102 14.58C91.9102 17.8838 93.0749 20.7302 95.4046 23.1211C97.7343 25.5114 100.561 26.7067 103.887 26.7067C106.031 26.7067 107.958 26.2028 109.666 25.1941L110.725 26.1996L110.801 26.2679C111.645 26.9971 112.926 26.9454 113.708 26.1336C114.513 25.2971 114.483 23.9709 113.641 23.1709L112.856 22.4253C114.751 20.1329 115.699 17.415 115.699 14.2703C115.699 10.8272 114.506 7.94243 112.123 5.61593ZM99.5873 9.70771C100.835 8.5007 102.235 7.89857 103.787 7.89857C105.341 7.89857 106.746 8.4959 108.005 9.69057C109.262 10.8859 109.891 12.4726 109.891 14.4505C109.891 16.0461 109.486 17.3792 108.674 18.4514L107.352 17.1951L107.276 17.1265C106.432 16.3976 105.151 16.4493 104.369 17.2611C103.564 18.0973 103.594 19.4238 104.436 20.2238L105.05 20.8076C104.651 20.894 104.241 20.9371 103.82 20.9371C102.267 20.9371 100.862 20.3341 99.6047 19.1273C98.3463 17.9219 97.7179 16.3517 97.7179 14.4179C97.7179 12.484 98.3413 10.9129 99.5873 9.70771Z" fill="white"/>
<path d="M124.459 5.32296C124.459 4.56264 124.405 3.9971 124.296 3.62794C124.011 2.82443 123.104 2.42188 121.572 2.42188C120.171 2.42188 119.318 2.71524 119.012 3.30198C118.837 3.62794 118.734 3.91642 118.701 4.1658C118.668 4.41597 118.652 4.79084 118.652 5.29036V23.4141C118.652 24.1752 118.718 24.7293 118.848 25.0765C119.111 25.9028 120.007 26.3153 121.54 26.3153H133.351C134.074 26.3153 134.643 26.2068 135.058 25.9893C135.32 25.8589 135.506 25.6193 135.617 25.2721C135.725 24.9249 135.78 24.4621 135.78 23.886C135.78 23.3106 135.725 22.8494 135.617 22.5015C135.506 22.1534 135.288 21.8984 134.96 21.7353C134.631 21.5725 134.108 21.4909 133.385 21.4909H124.459V5.32296Z" fill="white"/>
<path d="M6.84098 30.3891C7.63421 30.3891 8.27735 29.7502 8.27735 28.9623V26.314H10.0845C10.0845 26.314 12.3789 26.4794 12.3789 23.6809V22.2396H17.5329C17.5329 22.2396 24.6837 22.2949 24.6837 13.8262V9.103C24.6837 9.103 25.0306 2.68148 16.9587 2.68148H3.10528C3.10528 2.68148 0.894533 2.4248 0.894533 5.35686V23.8205C0.894533 23.8205 0.88141 26.314 3.175 26.314H4.9961V28.9623C4.9961 29.7502 5.63921 30.3891 6.43246 30.3891H6.84098Z" fill="white"/>
</svg>
