<svg width="28" height="28" viewBox="0 0 28 28" fill="none" xmlns="http://www.w3.org/2000/svg">
<path d="M27.9998 7.00008C27.9998 3.13417 24.8663 6.50922e-06 21.0003 6.50922e-06L7.00074 6.50922e-06C6.08135 -0.00124928 5.17074 0.179213 4.3213 0.531006C3.47185 0.882814 2.70028 1.39902 2.05096 2.04997C-0.682423 4.78382 -0.682423 9.21747 2.05096 11.9499L4.54384 14.443C1.88949 15.4379 0 17.9981 0 21C0 24.8659 3.13395 28 6.99989 28H21.0003C21.9196 28.0012 22.8302 27.8208 23.6796 27.4688C24.529 27.1171 25.3005 26.6008 25.9498 25.9498C28.6834 23.2159 28.6834 18.7823 25.9498 16.0498L23.457 13.5568C26.1107 12.5621 27.9998 10.0017 27.9998 7.00008ZM3.97133 24.0298C3.38317 23.4415 2.97905 22.6947 2.8083 21.8804C2.63754 21.0662 2.70754 20.2198 3.00975 19.4446C3.31196 18.6696 3.83331 17.9992 4.51013 17.5155C5.18696 17.0318 5.98999 16.7555 6.82115 16.7206L15.3847 25.2852H6.99961C6.43694 25.2864 5.87958 25.1762 5.35979 24.9607C4.84 24.7453 4.36807 24.4289 3.97133 24.0298ZM24.0294 17.9712C24.8328 18.7746 25.2841 19.8643 25.2841 21.0006C25.2841 22.1367 24.8328 23.2264 24.0294 24.0298C23.226 24.8332 22.1364 25.2847 21.0003 25.2847C19.8642 25.2847 18.7746 24.8332 17.9712 24.0298L3.97133 10.0294C3.17291 9.22491 2.72582 8.13678 2.72794 7.00329C2.73008 5.8698 3.18127 4.78336 3.98271 3.98187C4.78416 3.18036 5.87055 2.72914 7.00395 2.727C8.13736 2.72488 9.22542 3.172 10.0299 3.97047L24.0294 17.9712ZM24.0294 10.0294C23.2715 10.7911 22.2536 11.2378 21.1798 11.2796L12.6159 2.71573H21.0012C21.8483 2.71596 22.6764 2.96739 23.3807 3.43823C24.085 3.90908 24.634 4.57818 24.958 5.36098C25.2822 6.14375 25.367 7.00507 25.2017 7.83604C25.0363 8.667 24.6284 9.43029 24.0294 10.0294Z" fill="#58B1E4"/>
</svg>
